<?xml version="1.0" encoding="UTF-8"?> <svg xmlns="http://www.w3.org/2000/svg" width="531" height="361" viewBox="0 0 531 361" fill="none"><g clip-path="url(#clip0_9037_90736)"><path d="M385.8 103.2L379.07 123.49C378.981 123.752 378.821 123.983 378.607 124.159C378.394 124.335 378.135 124.448 377.861 124.485C377.587 124.522 377.308 124.483 377.056 124.371C376.803 124.259 376.586 124.078 376.43 123.85L375.7 122.65C361.176 99.5487 339.262 82.0426 313.523 72.9808C287.784 63.919 259.736 63.8348 233.943 72.7419C208.15 81.6491 186.13 99.0232 171.468 122.037C156.806 145.051 150.364 172.349 153.19 199.49C153.211 199.688 153.272 199.88 153.368 200.054C153.464 200.229 153.595 200.382 153.751 200.505C153.908 200.628 154.088 200.718 154.28 200.771C154.472 200.823 154.673 200.836 154.87 200.81L165.08 199.13C165.441 199.071 165.766 198.877 165.988 198.587C166.211 198.297 166.316 197.934 166.28 197.57C163.589 170.593 171.195 143.595 187.573 121.99C203.95 100.384 227.889 85.7675 254.59 81.07C293.28 74.22 332.21 88.63 355.64 117.82C368.25 133.43 375.82 153.01 378.71 161.42C378.809 161.707 378.996 161.956 379.243 162.132C379.49 162.309 379.786 162.403 380.09 162.403C380.394 162.403 380.69 162.309 380.937 162.132C381.185 161.956 381.371 161.707 381.47 161.42C388.32 139.56 396.47 113.61 398.53 107.42C398.591 107.236 398.613 107.042 398.595 106.849C398.577 106.657 398.519 106.47 398.425 106.301C398.331 106.132 398.203 105.984 398.049 105.867C397.895 105.749 397.718 105.665 397.53 105.62L387.32 102.37C386.88 101.96 386.04 102.32 385.8 103.2Z" fill="#EFDFFA"></path><path d="M383.51 176.55C383.16 176.631 382.849 176.831 382.631 177.115C382.412 177.4 382.298 177.751 382.31 178.11C384.89 205.058 377.222 231.989 360.833 253.535C344.444 275.082 320.539 289.662 293.88 294.37C255.19 301.22 216.26 286.8 192.88 257.62C180.26 242.01 172.69 222.43 169.81 214.02C169.713 213.729 169.527 213.477 169.278 213.297C169.03 213.118 168.731 213.022 168.425 213.022C168.119 213.022 167.82 213.118 167.571 213.297C167.323 213.477 167.137 213.729 167.04 214.02C160.19 235.88 152.04 261.82 149.98 268.07C149.919 268.254 149.897 268.448 149.915 268.641C149.934 268.833 149.991 269.02 150.085 269.189C150.179 269.358 150.307 269.506 150.461 269.623C150.615 269.74 150.792 269.825 150.98 269.87L161.2 273.11C161.384 273.171 161.578 273.193 161.771 273.175C161.963 273.156 162.15 273.099 162.319 273.005C162.488 272.911 162.636 272.783 162.753 272.629C162.87 272.475 162.954 272.298 163 272.11L169.73 251.81C169.819 251.548 169.98 251.317 170.193 251.141C170.407 250.965 170.665 250.852 170.939 250.815C171.213 250.777 171.492 250.817 171.744 250.929C171.997 251.041 172.214 251.222 172.37 251.45L173.09 252.65C183.649 269.411 198.163 283.322 215.357 293.16C232.551 302.998 251.898 308.462 271.699 309.071C291.499 309.68 311.146 305.416 328.912 296.654C346.678 287.892 362.021 274.9 373.59 258.82C390.904 234.906 398.742 205.425 395.59 176.07C395.569 175.872 395.508 175.68 395.412 175.506C395.316 175.331 395.185 175.178 395.029 175.055C394.872 174.932 394.692 174.842 394.5 174.789C394.308 174.737 394.107 174.724 393.91 174.75L383.51 176.55Z" fill="#EFDFFA"></path><path d="M109.69 164.06L107.29 163.7C107.41 162.86 107.53 162.14 107.65 161.3L110.05 161.66C109.822 162.44 109.701 163.247 109.69 164.06ZM110.53 158.17L108.13 157.81C108.232 156.999 108.393 156.197 108.61 155.41L111.01 155.89C110.89 156.61 110.65 157.45 110.53 158.2V158.17ZM111.74 152.29L109.33 151.81C109.45 150.97 109.69 150.25 109.81 149.41L112.1 149.89C112.057 150.7 111.936 151.503 111.74 152.29ZM113.06 146.52L110.77 145.92C111.01 145.08 111.13 144.36 111.37 143.52L113.66 144.12C113.42 144.96 113.3 145.8 113.06 146.52ZM114.62 140.76L112.34 140.04C112.58 139.32 112.82 138.48 113.06 137.76L115.34 138.48C115.1 139.2 114.86 140.04 114.59 140.76H114.62ZM116.42 135.11L114.14 134.39C114.367 133.611 114.648 132.85 114.98 132.11L117.26 132.95C116.888 133.631 116.606 134.357 116.42 135.11ZM118.34 129.47L116.06 128.63C116.3 127.91 116.66 127.07 116.9 126.35L119.18 127.19C118.953 127.969 118.673 128.73 118.34 129.47ZM120.63 123.82L118.46 122.82C118.82 122.1 119.06 121.38 119.46 120.54L121.63 121.54C121.23 122.38 120.87 123.1 120.59 123.82H120.63ZM123.03 118.42L120.87 117.42L121.95 115.26L124.11 116.34C123.677 116.993 123.315 117.69 123.03 118.42ZM125.55 113.01L123.39 111.93L124.47 109.77L126.63 110.85L125.55 113.01ZM128.44 107.73L126.27 106.53C126.63 105.81 127.11 105.09 127.47 104.37L129.52 105.57C129.16 106.41 128.8 107.01 128.44 107.73ZM131.44 102.57L129.44 101.36C129.839 100.667 130.28 99.999 130.76 99.36L132.76 100.68C132.241 101.251 131.797 101.886 131.44 102.57ZM134.56 97.52L132.56 96.2C133.04 95.48 133.4 94.88 133.88 94.2L135.93 95.52C135.4 96.2 135.04 96.92 134.59 97.52H134.56ZM137.93 92.6L136.01 91.2C136.49 90.59 137.01 89.87 137.45 89.27L139.37 90.71C138.89 91.28 138.41 92 137.93 92.6ZM141.41 87.79L139.49 86.35C139.97 85.75 140.49 85.03 140.93 84.43L142.85 85.87C142.37 86.47 141.89 87.2 141.41 87.79ZM145.14 83.11L143.33 81.55C143.82 80.95 144.42 80.35 144.9 79.75L146.7 81.31C146.22 81.91 145.59 82.51 145.14 83.11ZM148.98 78.54L147.18 76.98C147.66 76.38 148.26 75.78 148.74 75.18L150.54 76.74C150.055 77.3692 149.534 77.9702 148.98 78.54ZM153.07 74.2L151.38 72.52C151.99 71.92 152.47 71.32 153.07 70.84L154.75 72.52C154.16 73.0496 153.6 73.6104 153.07 74.2ZM157.27 69.88L155.59 68.2C156.19 67.6 156.79 67.11 157.39 66.51L159.07 68.32C158.35 68.82 157.87 69.42 157.27 69.9V69.88ZM161.59 65.81L160.03 64.01C160.6 63.4561 161.201 62.9353 161.83 62.45L163.39 64.25C162.82 64.8038 162.219 65.3247 161.59 65.81ZM166.03 61.97L164.48 60.2C165.08 59.72 165.68 59.12 166.28 58.64L167.85 60.44C167.24 60.89 166.64 61.49 166.04 61.97H166.03ZM170.72 58.25L169.28 56.33C169.88 55.84 170.6 55.33 171.2 54.88L172.64 56.81C171.929 57.182 171.283 57.6685 170.73 58.25H170.72ZM180.34 51.2L179.02 49.2C179.74 48.72 180.34 48.36 181.02 47.88L182.34 49.88C181.66 50.32 180.94 50.8 180.34 51.2ZM185.39 47.96L184.07 45.96C184.71 45.5173 185.378 45.1165 186.07 44.76L187.27 46.76C186.71 47.08 185.99 47.56 185.39 47.92V47.96ZM190.39 44.96L189.19 42.96C189.91 42.6 190.63 42.12 191.35 41.76L192.59 43.83L190.39 44.96ZM195.68 42.07L194.6 39.91L196.76 38.83L197.84 40.99C197.111 41.29 196.403 41.6374 195.72 42.03L195.68 42.07ZM200.97 39.43L199.93 37.2L202.09 36.2L203.09 38.36C202.435 38.7757 201.738 39.121 201.01 39.39L200.97 39.43ZM336.26 37.15C335.54 36.79 334.81 36.55 334.09 36.15L335.09 33.99C335.82 34.35 336.54 34.59 337.38 34.99L336.26 37.15ZM206.37 37.03L205.37 34.87C206.09 34.51 206.81 34.27 207.54 33.87L208.54 36.03C207.86 36.39 207.13 36.63 206.41 36.99L206.37 37.03ZM330.73 34.87C330.01 34.63 329.29 34.27 328.45 34.03L329.29 31.74C330.01 31.98 330.85 32.34 331.57 32.58L330.73 34.87ZM211.9 34.75L211.06 32.46C211.78 32.22 212.5 31.86 213.34 31.62L214.18 33.91C213.41 34.1065 212.66 34.3743 211.94 34.71L211.9 34.75ZM325.2 32.82C324.48 32.58 323.64 32.34 322.92 32.1L323.64 29.82C324.419 30.0468 325.18 30.3275 325.92 30.66L325.2 32.82ZM217.43 32.7L216.59 30.38C217.31 30.14 218.15 29.9 218.87 29.66L219.59 31.94C218.872 32.145 218.164 32.3853 217.47 32.66L217.43 32.7ZM319.43 30.9C318.71 30.66 317.87 30.42 317.15 30.18L317.87 27.9C318.59 28.14 319.43 28.38 320.16 28.62L319.43 30.9ZM223.07 30.78L222.35 28.5C223.07 28.26 223.92 28.02 224.64 27.78L225.36 30.06C224.68 30.26 223.96 30.5 223.11 30.74L223.07 30.78ZM313.83 29.2C313.11 28.96 312.27 28.84 311.54 28.6L312.15 26.32C312.99 26.56 313.71 26.68 314.55 26.92L313.83 29.2ZM228.83 29.2L228.23 26.92C228.95 26.68 229.79 26.56 230.63 26.32L231.23 28.6C230.431 28.7316 229.645 28.9324 228.88 29.2H228.83ZM308.01 27.76C307.29 27.64 306.45 27.4 305.73 27.28L306.21 24.88C307.05 25 307.77 25.24 308.61 25.36L308.01 27.76ZM234.6 27.76L234.12 25.36C234.96 25.24 235.68 25 236.52 24.88L237 27.28C236.207 27.3779 235.422 27.5316 234.65 27.74L234.6 27.76ZM302.12 26.56C301.311 26.4464 300.51 26.2861 299.72 26.08L300.08 23.68C300.891 23.7821 301.693 23.9425 302.48 24.16L302.12 26.56ZM240.59 26.42L240.11 24.02C240.921 23.9179 241.723 23.7574 242.51 23.54L242.87 25.94C242.123 26.1572 241.361 26.3177 240.59 26.42ZM296.34 25.42L293.93 25.06L294.29 22.66L296.7 23.02L296.34 25.42ZM246.47 25.42L246.11 23.02L248.52 22.66L248.88 25.06C247.99 25.2 247.14 25.34 246.42 25.46L246.47 25.42ZM290.47 24.7C289.63 24.58 288.91 24.58 288.07 24.46L288.31 22.06C289.15 22.18 289.87 22.18 290.71 22.3L290.47 24.7ZM252.38 24.58L252.14 22.18C252.98 22.06 253.7 22.06 254.54 21.94L254.78 24.34C253.964 24.4901 253.139 24.5837 252.31 24.62L252.38 24.58ZM284.46 24.1C283.664 24.0002 282.862 23.9601 282.06 23.98L282.18 21.58C283.02 21.58 283.74 21.7 284.58 21.7L284.46 24.1ZM278.57 23.74C277.73 23.74 277.01 23.62 276.17 23.62L276.29 21.22C277.092 21.2001 277.894 21.2402 278.69 21.34L278.57 23.74ZM264.28 23.74L264.16 21.34C265 21.34 265.72 21.22 266.56 21.22L266.68 23.62C265.854 23.6065 265.028 23.66 264.21 23.78L264.28 23.74ZM272.57 23.62H270.09V21.22H272.5L272.57 23.62Z" fill="#9953C0"></path><path d="M37.9598 209.94C37.8398 209.1 37.8398 208.38 37.7198 207.54L40.1198 207.3C40.2398 208.14 40.2398 208.86 40.3598 209.7L37.9598 209.94ZM37.4798 203.94C37.4798 203.1 37.3598 202.38 37.3598 201.54L39.7598 201.42C39.7598 202.26 39.8798 202.98 39.8798 203.82L37.4798 203.94ZM37.1198 197.94C37.1198 197.1 36.9998 196.38 36.9998 195.54L39.3998 195.42C39.3998 196.26 39.5198 196.98 39.5198 197.82L37.1198 197.94ZM36.8798 191.94V189.54H39.2798V191.94H36.8798ZM39.1598 185.82H36.7598V183.42H39.1598C39.2189 184.212 39.2189 185.008 39.1598 185.8V185.82ZM39.2798 179.93L36.8798 179.81C36.8599 179.008 36.9 178.206 36.9998 177.41L39.3998 177.53C39.3998 178.2 39.2798 179.07 39.2798 179.91V179.93ZM39.5198 173.93L37.1198 173.81C37.1198 172.97 37.2398 172.25 37.2398 171.4L39.6398 171.52C39.6589 172.319 39.6188 173.117 39.5198 173.91V173.93ZM39.9998 167.93L37.5998 167.69C37.7198 166.85 37.7198 166.13 37.8398 165.29L40.2398 165.53C40.1075 166.314 40.0273 167.106 39.9998 167.9V167.93ZM40.4898 162.05L38.0798 161.81C38.1998 160.97 38.1998 160.25 38.3198 159.4L40.7298 159.64C40.7083 160.438 40.6281 161.234 40.4898 162.02V162.05ZM41.2098 156.05L38.7998 155.69C38.9198 154.85 39.0398 154.13 39.1598 153.29L41.5698 153.65C41.4498 154.45 41.3298 155.29 41.2098 156.01V156.05ZM42.0498 150.17L39.6398 149.81C39.7598 148.97 39.8798 148.24 39.9998 147.4L42.4098 147.76C42.2898 148.56 42.1698 149.29 42.0498 150.13V150.17ZM43.1298 144.2L40.7298 143.72C40.8319 142.91 40.9923 142.107 41.2098 141.32L43.6098 141.8C43.3923 142.587 43.2319 143.39 43.1298 144.2ZM44.2098 138.32L41.8098 137.84C41.9298 136.99 42.1698 136.27 42.2898 135.43L44.6898 135.91C44.5896 136.737 44.4292 137.556 44.2098 138.36V138.32ZM45.5298 132.43L43.2498 131.83C43.4898 130.99 43.6098 130.27 43.8498 129.43L46.1298 130.03C45.8898 130.91 45.7698 131.75 45.5298 132.47V132.43ZM46.9698 126.67L44.6898 126.07C44.9298 125.34 45.0498 124.5 45.2898 123.78L47.6898 124.38C47.4498 125.14 47.2098 125.87 46.9698 126.71V126.67ZM48.6598 120.9L46.3698 120.2C46.6098 119.48 46.8498 118.64 47.0898 117.92L49.3798 118.64C49.1398 119.38 48.8998 120.1 48.6598 120.94V120.9ZM50.4598 115.14L48.1698 114.42C48.4198 113.69 48.6598 112.85 48.8998 112.13L51.1798 112.85C50.9398 113.73 50.6998 114.46 50.4598 115.2V115.14ZM52.3798 109.49L50.0998 108.65C50.3266 107.871 50.6073 107.11 50.9398 106.37L53.2198 107.21C52.8855 107.963 52.6048 108.738 52.3798 109.53V109.49ZM54.3798 103.85L52.0998 103.01C52.3398 102.28 52.6998 101.44 52.9398 100.72L55.2198 101.56C55.0198 102.45 54.6598 103.2 54.4198 103.89L54.3798 103.85ZM56.5898 98.36L54.4198 97.36C54.7798 96.64 55.0198 95.92 55.4198 95.08L57.5898 96.08C57.1898 96.92 56.9498 97.64 56.5898 98.36ZM58.9898 92.84L56.8298 91.84C57.1898 91.12 57.4298 90.39 57.8298 89.67L59.9898 90.67C59.6081 91.3701 59.274 92.0951 58.9898 92.84ZM61.3898 87.43L59.2298 86.35L60.3098 84.2L62.4698 85.28L61.3898 87.43ZM64.0298 82.03L61.8698 80.95L62.9498 78.78L65.1198 79.87C64.7598 80.59 64.3998 81.31 64.0298 82.03ZM66.7998 76.74L64.6398 75.66C64.9935 74.9153 65.3943 74.1938 65.8398 73.5L67.9998 74.7C67.6398 75.3 67.2798 76.02 66.7998 76.74ZM69.7998 71.46L67.7998 70.26C68.1598 69.54 68.6398 68.82 68.9998 68.26L70.9998 69.46C70.5198 70.14 70.1598 70.86 69.7998 71.46ZM72.7998 66.41L70.7998 65.21C71.1984 64.517 71.6393 63.849 72.1198 63.21L74.1698 64.53C73.6245 65.0848 73.1661 65.7186 72.8098 66.41H72.7998ZM75.9198 61.25L73.9198 59.93C74.3998 59.21 74.7598 58.61 75.2398 57.93L77.2398 59.25C76.8714 59.959 76.4325 60.6291 75.9298 61.25H75.9198ZM79.2798 56.33L77.2798 55C77.7603 54.361 78.2011 53.6931 78.5998 53L80.5298 54.32C80.1543 55.0127 79.7403 55.6837 79.2898 56.33H79.2798ZM82.6498 51.4L80.7298 49.96C81.2098 49.36 81.7298 48.64 82.1698 48.04L84.0898 49.48C83.5898 50.08 83.1398 50.8 82.6598 51.4H82.6498ZM86.2498 46.6L84.3398 45.2C84.8198 44.6 85.3398 43.87 85.7798 43.27L87.6998 44.72C87.2198 45.28 86.7398 46 86.2598 46.6H86.2498ZM89.8598 41.91L87.9298 40.47C88.4198 39.87 88.9298 39.27 89.4998 38.55L91.2998 40.11C90.8678 40.7442 90.3899 41.3458 89.8698 41.91H89.8598ZM93.7098 37.2L91.9098 35.64C92.3898 35.04 92.9898 34.44 93.4698 33.84L95.2698 35.4C94.7898 36.03 94.1898 36.63 93.7098 37.2ZM97.7098 32.76L95.8698 31.2C96.3598 30.6 96.9598 30 97.4398 29.4L99.2398 30.96C98.6827 31.5374 98.1617 32.1486 97.6798 32.79L97.7098 32.76ZM101.71 28.31L99.9098 26.63C100.51 26.03 100.99 25.43 101.59 24.83L103.27 26.51C102.763 27.1514 102.218 27.7625 101.64 28.34L101.71 28.31ZM105.92 23.99L104.23 22.31C104.84 21.71 105.32 21.1 105.92 20.62L107.6 22.31C106.985 22.8474 106.401 23.4182 105.85 24.02L105.92 23.99ZM110.12 19.78L108.44 18.1C109.04 17.5 109.64 17.02 110.24 16.42L111.92 18.22C111.24 18.6799 110.613 19.2131 110.05 19.81L110.12 19.78ZM114.45 15.7L112.77 13.9C113.37 13.3 113.97 12.82 114.57 12.22L116.13 14.02C115.578 14.6218 114.994 15.1927 114.38 15.73L114.45 15.7ZM118.89 11.7L117.33 9.90001C117.93 9.41001 118.53 8.81001 119.13 8.33001L120.59 10.2C119.969 10.6871 119.378 11.2114 118.82 11.77L118.89 11.7ZM123.46 7.85001L121.9 6.05001C122.5 5.57001 123.1 4.97001 123.82 4.49001L125.38 6.41001C124.635 6.7956 123.962 7.30637 123.39 7.92001L123.46 7.85001ZM128.14 4.01001L126.59 2.20001C127.19 1.72001 127.91 1.20001 128.52 0.76001L129.96 2.68001C129.28 3.12001 128.68 3.60001 128.07 4.08001L128.14 4.01001Z" fill="#9953C0"></path><path d="M437.46 351.66L435.78 349.98L437.46 348.3L439.14 349.98C438.55 350.51 437.989 351.07 437.46 351.66ZM441.67 347.34L439.86 345.65C440.47 345.05 440.95 344.45 441.55 343.85L443.35 345.53C442.75 346.14 442.27 346.74 441.67 347.34ZM445.75 342.89L443.95 341.33C444.43 340.73 445.03 340.13 445.51 339.53L447.31 341.09C446.83 341.69 446.23 342.29 445.75 342.89ZM449.75 338.33L447.94 336.77C448.43 336.17 449.03 335.57 449.51 334.97L451.31 336.53C450.8 337.13 450.2 337.73 449.72 338.33H449.75ZM453.59 333.64L451.67 332.08C452.15 331.48 452.67 330.88 453.11 330.16L455.03 331.6C454.607 332.319 454.126 333.001 453.59 333.64ZM457.32 328.96L455.39 327.52C455.87 326.92 456.39 326.2 456.84 325.6L458.76 327.04C458.25 327.64 457.77 328.2 457.29 328.96H457.32ZM460.92 324.04L459 322.6C459.48 321.99 460 321.27 460.44 320.67L462.36 322.11C461.85 322.72 461.37 323.44 460.89 324.04H460.92ZM464.41 319.11L462.48 317.79C462.96 317.19 463.32 316.47 463.8 315.87L465.85 317.19C465.34 317.79 464.86 318.51 464.38 319.11H464.41ZM467.77 314.11L465.77 312.79C466.25 312.07 466.61 311.47 467.09 310.74L469.09 312.07C468.59 312.75 468.22 313.47 467.74 314.07L467.77 314.11ZM471.01 309.06L469.01 307.86C469.37 307.14 469.85 306.54 470.21 305.86L472.26 307.06C471.82 307.58 471.46 308.3 470.98 309.02L471.01 309.06ZM474.14 303.9L472.14 302.7C472.5 301.98 472.98 301.26 473.34 300.7L475.34 301.9C474.95 302.42 474.47 303.14 474.11 303.86L474.14 303.9ZM477.02 298.61L474.86 297.41L475.94 295.25L478.1 296.33C477.849 297.13 477.475 297.886 476.99 298.57L477.02 298.61ZM479.9 293.21L477.74 292.13L478.82 289.97L480.99 291.05C480.59 291.73 480.24 292.45 479.87 293.2L479.9 293.21ZM482.55 287.8L480.39 286.72L481.47 284.56L483.63 285.56C483.24 286.32 482.88 287.04 482.52 287.76L482.55 287.8ZM485.07 282.4L482.91 281.4C483.27 280.68 483.51 279.96 483.91 279.24L486.07 280.24C485.76 280.8 485.4 281.64 485.04 282.36L485.07 282.4ZM487.47 276.76L485.31 275.76C485.67 275.04 485.91 274.32 486.31 273.6L488.6 274.6C488.17 275.27 487.8 275.99 487.44 276.72L487.47 276.76ZM489.76 271.23L487.47 270.39C487.71 269.67 488.08 268.95 488.32 268.11L490.6 268.95C490.362 269.719 490.071 270.471 489.73 271.2L489.76 271.23ZM491.92 265.59L489.64 264.75C489.865 263.968 490.146 263.202 490.48 262.46L492.76 263.3C492.4 264.021 492.109 264.774 491.89 265.55L491.92 265.59ZM493.84 259.82L491.56 259.1C491.8 258.38 492.04 257.54 492.28 256.82L494.56 257.54C494.29 258.2 494.05 259.06 493.81 259.78L493.84 259.82ZM495.64 254.06L493.36 253.34C493.6 252.61 493.84 251.77 494.08 251.05L496.37 251.77C496.1 252.45 495.85 253.3 495.59 254.02L495.64 254.06ZM497.33 248.29L495.04 247.69C495.28 246.97 495.4 246.13 495.64 245.41L497.93 246.01C497.76 246.767 497.55 247.515 497.3 248.25L497.33 248.29ZM498.89 242.41L496.61 241.81C496.85 241.08 496.97 240.24 497.21 239.52L499.49 240.12C499.21 240.849 498.999 241.602 498.86 242.37L498.89 242.41ZM500.21 236.52L497.81 236.04C497.93 235.2 498.17 234.48 498.29 233.64L500.69 234.12C500.59 234.92 500.3 235.64 500.18 236.48L500.21 236.52ZM501.41 230.52L499.01 230.04C499.111 229.226 499.271 228.421 499.49 227.63L501.89 228.11C501.674 228.889 501.504 229.681 501.38 230.48L501.41 230.52ZM502.49 224.63L500.09 224.27C500.21 223.43 500.33 222.71 500.45 221.87L502.85 222.23C502.7 222.91 502.59 223.75 502.46 224.59L502.49 224.63ZM503.33 218.63L500.93 218.26C501.05 217.42 501.17 216.7 501.29 215.86L503.69 216.22C503.59 216.9 503.42 217.74 503.3 218.59L503.33 218.63ZM504.06 212.63L501.65 212.39C501.77 211.55 501.77 210.83 501.89 209.99L504.3 210.23C504.261 211.018 504.171 211.803 504.03 212.58L504.06 212.63ZM504.66 206.63L502.25 206.39C502.37 205.55 502.37 204.83 502.49 203.99L504.9 204.11C504.75 204.89 504.75 205.73 504.59 206.57L504.66 206.63ZM505.14 200.51L502.73 200.39C502.73 199.55 502.85 198.83 502.85 197.99L505.26 198.11C505.23 198.89 505.11 199.73 505.11 200.45L505.14 200.51ZM505.38 194.51L502.97 194.39C502.95 193.588 502.99 192.786 503.09 191.99H505.5C505.47 192.88 505.35 193.6 505.35 194.44L505.38 194.51ZM505.5 188.51H503.09V186.11H505.5V188.51ZM503.09 182.51V180.11L505.5 179.99V182.39L503.09 182.51ZM502.85 176.51C502.85 175.67 502.73 174.95 502.73 174.11L505.14 173.99C505.14 174.83 505.26 175.55 505.26 176.39L502.85 176.51ZM502.61 170.62C502.61 169.78 502.49 169.06 502.49 168.22L504.9 167.98C505 168.776 505.04 169.578 505.02 170.38L502.61 170.62ZM502.13 164.62C502.01 163.78 502.01 163.06 501.89 162.22L504.3 161.98C504.42 162.82 504.42 163.54 504.54 164.38L502.13 164.62ZM501.41 158.73C501.27 157.937 501.19 157.135 501.17 156.33L503.57 155.97C503.69 156.81 503.81 157.53 503.93 158.37L501.41 158.73ZM500.69 152.73C500.57 151.89 500.45 151.17 500.33 150.33L502.73 149.97C502.85 150.81 502.97 151.53 503.09 152.37L500.69 152.73ZM499.69 146.84C499.57 146 499.45 145.28 499.33 144.44L501.73 143.96C501.832 144.77 501.992 145.573 502.21 146.36L499.69 146.84ZM498.59 140.88C498.47 140.04 498.23 139.32 498.11 138.6L500.51 138.12C500.63 138.96 500.87 139.68 500.99 140.52L498.59 140.88ZM497.27 135.11C497.15 134.39 496.91 133.55 496.79 132.83L499.07 132.23C499.31 133.07 499.43 133.79 499.67 134.63L497.27 135.11ZM495.98 129.2C495.73 128.48 495.61 127.64 495.37 126.92L497.66 126.32C497.9 127.04 498.02 127.88 498.26 128.6L495.98 129.2Z" fill="#9953C0"></path><path d="M270.93 352.02H268.53V349.62H270.93V352.02ZM274.54 351.9V349.5C275.342 349.52 276.144 349.48 276.94 349.38L277.06 351.78C276.24 351.877 275.415 351.918 274.59 351.9H274.54ZM264.93 351.9C264.08 351.9 263.36 351.78 262.52 351.78L262.64 349.38C263.48 349.38 264.21 349.5 265.05 349.5L264.93 351.9ZM280.55 351.78L280.43 349.38C281.27 349.38 281.99 349.26 282.83 349.26L282.95 351.66C282.162 351.645 281.373 351.685 280.59 351.78H280.55ZM258.8 351.54C257.995 351.52 257.193 351.439 256.4 351.3L256.64 348.9C257.48 349.02 258.2 349.02 259.04 349.14L258.8 351.54ZM286.67 351.3L286.43 348.9C287.27 348.78 287.99 348.78 288.84 348.66L289.08 351.06C288.24 351.2 287.39 351.2 286.67 351.3ZM252.79 350.94C251.997 350.801 251.195 350.72 250.39 350.7L250.63 348.3C251.423 348.439 252.225 348.52 253.03 348.54L252.79 350.94ZM292.68 350.58L292.32 348.18L294.72 347.82L295.08 350.22C294.24 350.34 293.4 350.46 292.68 350.58ZM246.78 350.22L244.38 349.86L244.74 347.46L247.14 347.82L246.78 350.22ZM298.57 349.74L298.21 347.34L300.61 346.98L301.09 349.38L298.57 349.74ZM240.78 349.26C239.966 349.159 239.161 348.998 238.37 348.78L238.85 346.38C239.57 346.5 240.42 346.74 241.26 346.86L240.78 349.26ZM304.58 348.66L304.1 346.26C304.82 346.14 305.66 345.9 306.38 345.78L306.86 348.18C306.094 348.295 305.336 348.455 304.59 348.66H304.58ZM234.89 348.06C234.077 347.917 233.275 347.716 232.49 347.46L233.09 345.17C233.835 345.395 234.598 345.559 235.37 345.66L234.89 348.06ZM310.46 347.34L309.86 345.05C310.58 344.81 311.42 344.69 312.15 344.45L312.75 346.74C311.976 346.897 311.212 347.097 310.46 347.34ZM229 346.62C228.16 346.38 227.44 346.26 226.72 346.02L227.32 343.73C228.064 343.986 228.826 344.186 229.6 344.33L229 346.62ZM322.12 343.97L321.4 341.69C322.12 341.45 322.96 341.21 323.68 340.97L324.4 343.25C323.68 343.49 322.84 343.73 322.12 343.97ZM217.47 343.13C216.688 342.903 215.923 342.623 215.18 342.29L216.02 340.01C216.75 340.25 217.47 340.49 218.31 340.85L217.47 343.13ZM327.88 342.05L327.04 339.77C327.76 339.53 328.49 339.17 329.33 338.93L330.17 341.21C329.33 341.45 328.59 341.81 327.88 342.05ZM211.7 340.97C211.16 340.717 210.598 340.516 210.02 340.37L210.86 338.09C211.4 338.343 211.962 338.544 212.54 338.69L211.7 340.97ZM333.41 339.89L332.41 337.61C333.153 337.328 333.874 336.993 334.57 336.61L335.57 338.77C334.904 339.239 334.177 339.615 333.41 339.89ZM339.06 337.49L338.06 335.33C338.78 334.97 339.5 334.73 340.22 334.33L341.22 336.49C340.478 336.772 339.756 337.107 339.06 337.49ZM344.47 334.97L343.38 332.8L345.55 331.72L346.63 333.89L344.47 334.97ZM349.87 332.08L348.67 329.92C349.376 329.589 350.046 329.187 350.67 328.72L351.87 330.72C351.243 331.229 350.574 331.684 349.87 332.08ZM355.04 329.2L353.84 327.2C354.56 326.84 355.16 326.36 355.84 326L357.04 328C356.48 328.36 355.76 328.72 355.04 329.2ZM365.25 322.72L363.93 320.79C364.541 320.31 365.183 319.869 365.85 319.47L367.29 321.39C366.566 321.763 365.883 322.208 365.25 322.72ZM370.18 319.11L368.74 317.2C369.34 316.72 370.06 316.2 370.66 315.76L372.1 317.68C371.38 318.2 370.78 318.63 370.18 319.11ZM374.98 315.39L373.42 313.47C374.049 312.985 374.65 312.464 375.22 311.91L376.79 313.71C376.248 314.333 375.642 314.896 374.98 315.39ZM379.55 311.55L377.99 309.74C378.59 309.26 379.19 308.66 379.79 308.18L381.35 309.98C380.75 310.46 380.15 311.07 379.59 311.55H379.55ZM383.99 307.46L382.31 305.66C382.9 305.13 383.46 304.57 383.99 303.98L385.68 305.66C385.215 306.345 384.644 306.952 383.99 307.46ZM392.65 298.93L390.84 297.25C391.32 296.65 391.92 296.05 392.41 295.45L394.21 297.01C393.73 297.73 393.13 298.33 392.65 298.93ZM396.65 294.37L394.85 292.81C395.33 292.21 395.93 291.61 396.41 291.01L398.21 292.57C397.69 293.2 397.09 293.77 396.59 294.37H396.65ZM400.5 289.81L398.57 288.37C399.05 287.77 399.57 287.16 400.01 286.44L401.94 287.89C401.59 288.49 400.94 289.09 400.46 289.81H400.5ZM404.22 285L402.3 283.56C402.78 282.96 403.3 282.24 403.74 281.64L405.66 283.08C405.14 283.68 404.66 284.28 404.18 285H404.22ZM407.7 280.08L405.78 278.76C406.26 278.16 406.62 277.44 407.1 276.84L409.1 278.16C408.59 278.76 408.15 279.36 407.66 280.08H407.7ZM411.07 275.03L409.07 273.71C409.55 272.99 409.91 272.39 410.39 271.71L412.39 272.91C411.87 273.59 411.51 274.31 411.03 275.03H411.07ZM414.19 269.87L412.19 268.67C412.55 267.95 413.03 267.35 413.39 266.67L415.39 267.87C414.99 268.43 414.59 269.2 414.15 269.87H414.19ZM417.19 264.47L415.02 263.38C415.38 262.66 415.74 261.94 416.11 261.22L418.27 262.3C417.947 263.046 417.576 263.771 417.16 264.47H417.19ZM419.95 259.18L417.79 258.1L418.87 255.94L421.03 257.02C420.64 257.62 420.28 258.46 419.92 259.2L419.95 259.18ZM422.47 253.66L420.31 252.66C420.67 251.94 420.91 251.22 421.31 250.5L423.47 251.5C423.16 252.09 422.8 252.94 422.44 253.66H422.47ZM424.88 248.01L422.59 247.2C422.83 246.48 423.19 245.76 423.43 244.92L425.72 245.76C425.45 246.57 425.09 247.29 424.85 248.01H424.88ZM427.04 242.37L424.76 241.53C424.98 240.734 425.257 239.956 425.59 239.2L427.87 239.92C427.49 240.8 427.25 241.65 427.01 242.37H427.04ZM428.96 236.6L426.68 235.88C426.92 235.16 427.16 234.32 427.4 233.6L429.68 234.32C429.41 235.04 429.17 235.88 428.93 236.6H428.96ZM432.21 224.95L429.92 224.35C430.137 223.603 430.298 222.841 430.4 222.07L432.81 222.55C432.544 223.334 432.333 224.136 432.18 224.95H432.21ZM433.41 219.07L431 218.59C431.12 217.86 431.36 217.02 431.48 216.3L433.89 216.78C433.766 217.553 433.596 218.318 433.38 219.07H433.41ZM434.49 213.07L432.08 212.71C432.21 211.87 432.33 211.15 432.45 210.31L434.85 210.67C434.7 211.5 434.59 212.34 434.46 213.06L434.49 213.07ZM435.33 207.07L432.93 206.83C433.069 206.034 433.149 205.228 433.17 204.42L435.57 204.66C435.545 205.466 435.454 206.269 435.3 207.06L435.33 207.07ZM436.05 201.07L433.65 200.83C433.77 199.99 433.77 199.27 433.89 198.43L436.29 198.55C436.152 199.378 436.062 200.212 436.02 201.05L436.05 201.07Z" fill="#9953C0"></path><path d="M195.5 295.36V326.45C195.507 326.548 195.549 326.641 195.619 326.711C195.689 326.781 195.782 326.823 195.88 326.83H226.99C227.088 326.823 227.181 326.781 227.251 326.711C227.321 326.641 227.363 326.548 227.37 326.45C227.293 322.39 226.476 318.377 224.96 314.61C223.364 310.747 221.007 307.244 218.03 304.31C215.078 301.355 211.58 299.001 207.73 297.38C203.973 295.816 199.949 294.998 195.88 294.97C195.78 294.977 195.686 295.021 195.616 295.093C195.546 295.165 195.505 295.26 195.5 295.36Z" fill="#9953C0"></path><path d="M192.59 329.34V299.34C192.581 299.241 192.536 299.148 192.465 299.078C192.393 299.009 192.299 298.967 192.2 298.96C187.514 299.008 182.9 300.126 178.711 302.228C174.523 304.331 170.869 307.361 168.03 311.09C165.139 314.878 163.192 319.3 162.35 323.99C161.474 328.657 161.672 333.462 162.93 338.04C164.216 342.622 166.555 346.841 169.76 350.36C172.928 353.901 176.889 356.643 181.32 358.36C185.774 360.083 190.562 360.767 195.32 360.36C200.069 359.963 204.657 358.448 208.71 355.94C217.09 350.83 216.22 331.58 216.22 331.58L193.01 329.66C192.7 329.72 192.59 329.53 192.59 329.34Z" fill="#D0AFE2"></path><path d="M214.47 351.28C214.503 351.325 214.545 351.362 214.595 351.388C214.645 351.414 214.699 351.427 214.755 351.427C214.811 351.427 214.866 351.414 214.916 351.388C214.965 351.362 215.008 351.325 215.04 351.28C217.778 348.469 219.968 345.173 221.5 341.56C223.03 337.937 223.815 334.043 223.81 330.11C223.805 330.008 223.763 329.912 223.691 329.84C223.618 329.768 223.522 329.725 223.42 329.72H192.99L214.47 351.28Z" fill="#D0AFE2"></path><path d="M214.76 351.48L192.99 329.72L208.79 355.62C208.815 355.671 208.851 355.716 208.897 355.75C208.942 355.784 208.995 355.806 209.052 355.815C209.108 355.824 209.165 355.819 209.219 355.801C209.273 355.782 209.321 355.751 209.36 355.71C211.343 354.55 213.159 353.127 214.76 351.48Z" fill="#D0AFE2"></path><path d="M363.93 334.49C363.933 339.433 362.48 344.268 359.751 348.391C357.023 352.513 353.141 355.741 348.59 357.67C344.034 359.577 339.012 360.079 334.17 359.11C329.319 358.104 324.859 355.727 321.32 352.26C317.761 348.789 315.367 344.299 314.47 339.41C313.501 334.571 314.003 329.552 315.91 325C317.767 320.412 320.998 316.51 325.16 313.83C329.279 311.061 334.136 309.594 339.1 309.62C342.368 309.613 345.605 310.252 348.625 311.5C351.645 312.747 354.39 314.579 356.7 316.89C359.011 319.2 360.843 321.945 362.09 324.965C363.338 327.985 363.976 331.222 363.97 334.49H363.93Z" fill="#D0AFE2"></path><path d="M353 330.04V327.64C352.991 327.516 352.937 327.399 352.849 327.311C352.761 327.223 352.644 327.169 352.52 327.16H338.46C338.34 327.16 338.1 327.04 338.1 326.92L335.81 323.68C335.69 323.56 335.57 323.44 335.45 323.44H325.59C325.466 323.449 325.349 323.503 325.261 323.591C325.173 323.679 325.119 323.796 325.11 323.92V330.04C325.119 330.164 325.173 330.281 325.261 330.369C325.349 330.457 325.466 330.511 325.59 330.52H352.51C352.636 330.513 352.755 330.461 352.845 330.372C352.935 330.284 352.99 330.166 353 330.04Z" fill="#9953C0"></path><path d="M325.12 334.61V346.98C325.129 347.104 325.183 347.221 325.271 347.309C325.359 347.397 325.476 347.451 325.6 347.46H352.52C352.644 347.451 352.761 347.397 352.849 347.309C352.937 347.221 352.991 347.104 353 346.98V334.61C352.991 334.486 352.937 334.369 352.849 334.281C352.761 334.193 352.644 334.139 352.52 334.13H325.59C325.526 334.125 325.462 334.135 325.402 334.157C325.343 334.18 325.289 334.215 325.244 334.261C325.199 334.307 325.165 334.362 325.143 334.422C325.122 334.482 325.114 334.546 325.12 334.61Z" fill="#9953C0"></path><path d="M492.59 159.97C500.166 159.966 507.571 157.716 513.868 153.504C520.166 149.292 525.073 143.307 527.969 136.307C530.866 129.306 531.622 121.604 530.141 114.174C528.661 106.744 525.01 99.9194 519.652 94.5637C514.293 89.2079 507.467 85.5612 500.036 84.0846C492.605 82.6081 484.904 83.3679 477.905 86.2681C470.905 89.1683 464.923 94.0786 460.715 100.378C456.506 106.678 454.26 114.084 454.26 121.66C454.261 126.692 455.254 131.675 457.181 136.324C459.107 140.972 461.931 145.196 465.49 148.753C469.05 152.311 473.275 155.132 477.925 157.057C482.574 158.981 487.557 159.971 492.59 159.97Z" fill="#D0AFE2"></path><path d="M501.26 119.62L507.87 122.38C508.399 122.582 508.864 122.922 509.216 123.365C509.568 123.809 509.794 124.339 509.87 124.9L512.28 135.83C512.28 136.07 512.03 136.31 511.79 136.19L504.35 132.47L501.26 119.62Z" fill="#9953C0"></path><path d="M484.92 124.9L481.2 130.9C480.896 131.378 480.715 131.925 480.673 132.49C480.632 133.055 480.73 133.622 480.96 134.14L485.4 144.47C485.429 144.524 485.472 144.57 485.525 144.602C485.578 144.633 485.638 144.65 485.7 144.65C485.762 144.65 485.822 144.633 485.875 144.602C485.928 144.57 485.971 144.524 486 144.47L490 137.14L484.92 124.9Z" fill="#9953C0"></path><path d="M499.82 111.81C493.82 100.16 485.88 94.64 484.2 93.56C483.96 93.44 483.72 93.56 483.72 93.68C483 95.6 479.72 104.61 481.56 117.58C483.24 129.35 488.28 136.19 489.73 138C489.852 138.163 490.021 138.284 490.214 138.349C490.407 138.413 490.615 138.417 490.81 138.36L497.59 136.2L504.31 134.04C504.478 134.006 504.629 133.917 504.74 133.786C504.851 133.655 504.914 133.491 504.92 133.32C505.23 131.2 505.47 122.5 499.82 111.81Z" fill="#9953C0"></path><path d="M499.82 111.81C493.69 100.04 485.76 94.52 484.2 93.56C484.08 93.44 483.84 93.56 483.96 93.68C484.08 97.04 485.16 122.5 495.96 136.8C501.01 134.99 503.29 134.39 504.25 134.03C504.475 133.986 504.676 133.859 504.811 133.673C504.947 133.488 505.007 133.258 504.98 133.03C505.23 130.79 505.35 122.38 499.82 111.81Z" fill="#EFDFFA"></path><path d="M493.09 136.67C491.65 142.8 494.09 146.67 494.17 146.88C494.25 147.09 494.53 147.24 494.53 146.88C494.53 146.52 494.77 145.44 495.01 144.6C496.22 149.05 500.78 151.69 502.22 152.41C502.275 152.436 502.334 152.451 502.395 152.452C502.456 152.454 502.516 152.444 502.573 152.421C502.629 152.399 502.68 152.365 502.723 152.321C502.765 152.278 502.798 152.227 502.82 152.17C503.42 150.97 504.82 147.6 504.27 144.84C504.601 145.157 504.884 145.521 505.11 145.92C505.11 145.92 505.35 146.28 505.47 145.92C505.95 144.48 506.79 139.68 501.47 134.03L493.09 136.67Z" fill="#EFDFFA"></path><path d="M495.01 136.07C495.463 140.649 497.554 144.911 500.9 148.07C500.936 148.102 500.98 148.125 501.027 148.137C501.075 148.148 501.124 148.148 501.171 148.136C501.219 148.125 501.262 148.101 501.299 148.069C501.335 148.036 501.363 147.996 501.38 147.95C501.906 145.721 501.965 143.406 501.552 141.153C501.139 138.9 500.263 136.757 498.98 134.86L495.01 136.07Z" fill="#9953C0"></path><path d="M489.01 137.04C489.37 137.52 489.61 137.76 489.85 138.12C489.988 138.296 490.178 138.425 490.393 138.49C490.608 138.554 490.837 138.551 491.05 138.48L497.66 136.31L504.39 134.2C504.604 134.138 504.792 134.005 504.922 133.824C505.053 133.643 505.119 133.423 505.11 133.2V131.88L489.01 137.04Z" fill="#9953C0"></path><path d="M493.09 123.2L492.85 128.2V128.44L498.5 140.69C498.74 141.05 499.34 140.93 499.22 140.45L496.94 127.2C496.94 127.08 496.94 127.08 496.82 126.96L493.57 122.96C493.59 122.74 493.09 122.86 493.09 123.2Z" fill="#9953C0"></path><path d="M309.65 152.08C306.658 143.3 300.768 135.8 292.948 130.813C285.128 125.825 275.843 123.648 266.621 124.638C257.399 125.628 248.788 129.728 242.205 136.262C235.622 142.796 231.459 151.375 230.4 160.59C221.892 163.055 214.564 168.514 209.767 175.96C204.97 183.406 203.028 192.335 204.3 201.101C205.573 209.866 209.973 217.875 216.689 223.65C223.405 229.425 231.983 232.575 240.84 232.52H307.5C318.223 232.541 328.517 228.308 336.122 220.749C343.728 213.19 348.025 202.923 348.07 192.2C348.33 170.69 331.2 153.14 309.65 152.08Z" fill="#9953C0"></path><path d="M302.77 22.1C302.767 26.4756 301.465 30.7518 299.027 34.3857C296.59 38.0196 293.128 40.8473 289.08 42.51C285.059 44.2146 280.609 44.6338 276.34 43.71C272.075 42.8449 268.153 40.7606 265.05 37.71C261.977 34.6236 259.888 30.6943 259.05 26.42C258.236 22.1487 258.652 17.7338 260.25 13.69C261.953 9.639 264.79 6.16636 268.42 3.69C272.054 1.27639 276.317 -0.0170953 280.68 -0.0300043C283.585 -0.0480939 286.463 0.516003 289.146 1.62897C291.829 2.74194 294.261 4.38122 296.3 6.45C300.446 10.6025 302.774 16.2318 302.77 22.1Z" fill="#D0AFE2"></path><path fill-rule="evenodd" clip-rule="evenodd" d="M287.51 11.05H293.16C293.284 11.0592 293.401 11.1128 293.489 11.2009C293.577 11.2889 293.631 11.4057 293.64 11.53V33.87C293.631 33.9942 293.577 34.111 293.489 34.1991C293.401 34.2872 293.284 34.3407 293.16 34.35H287.51C287.386 34.3407 287.269 34.2872 287.181 34.1991C287.093 34.111 287.039 33.9942 287.03 33.87V11.53C287.024 11.4654 287.032 11.4003 287.054 11.3392C287.076 11.2782 287.111 11.2227 287.157 11.1768C287.203 11.131 287.258 11.0958 287.319 11.0739C287.38 11.052 287.445 11.0438 287.51 11.05Z" fill="#9953C0"></path><path fill-rule="evenodd" clip-rule="evenodd" d="M277.9 18.13H283.59C283.714 18.1392 283.831 18.1928 283.919 18.2809C284.007 18.369 284.061 18.4858 284.07 18.61V33.75C284.054 33.8689 283.998 33.9786 283.91 34.0606C283.823 34.1426 283.71 34.1918 283.59 34.2H277.94C277.816 34.1908 277.699 34.1372 277.611 34.0491C277.523 33.961 277.469 33.8442 277.46 33.72V18.61C277.468 18.4919 277.516 18.3799 277.596 18.2926C277.676 18.2053 277.783 18.148 277.9 18.13Z" fill="#9953C0"></path><path fill-rule="evenodd" clip-rule="evenodd" d="M268.29 24.5H273.94C274.064 24.5092 274.181 24.5628 274.269 24.6509C274.357 24.739 274.411 24.8558 274.42 24.98V33.87C274.411 33.9942 274.357 34.111 274.269 34.1991C274.181 34.2872 274.064 34.3408 273.94 34.35H268.29C268.166 34.3408 268.049 34.2872 267.961 34.1991C267.873 34.111 267.819 33.9942 267.81 33.87V24.98C267.804 24.9154 267.812 24.8503 267.834 24.7892C267.856 24.7282 267.891 24.6727 267.937 24.6269C267.983 24.581 268.038 24.5458 268.099 24.5239C268.16 24.502 268.226 24.4938 268.29 24.5Z" fill="#9953C0"></path><path d="M120.99 181.95C122.31 181.71 122.07 179.31 120.75 179.19C119.992 179.087 119.226 179.047 118.46 179.07C118.356 178.535 118.195 178.012 117.98 177.51C118.603 177.102 119.204 176.662 119.78 176.19C120.87 175.35 119.78 173.31 118.46 173.67C117.729 173.874 117.008 174.114 116.3 174.39C115.94 173.91 115.58 173.55 115.22 173.07L116.42 171.26C117.14 170.06 115.42 168.62 114.42 169.34C114.06 169.7 113.1 170.42 112.62 170.78C112.191 170.515 111.747 170.275 111.29 170.06C111.41 169.58 111.53 168.74 111.65 167.9C111.89 166.58 109.65 165.9 109.01 167.06L108.01 168.98C107.53 168.86 106.93 168.86 106.33 168.74C106.21 168.26 106.09 167.42 105.85 166.58C105.49 165.26 103.2 165.5 103.08 166.82C103.08 167.3 102.96 168.38 102.96 168.98C102.425 169.085 101.902 169.246 101.4 169.46C100.993 168.837 100.552 168.236 100.08 167.66C99.2402 166.58 97.2002 167.66 97.5602 168.98C97.6802 169.46 98.1602 170.54 98.2802 171.14C97.8002 171.5 97.4402 171.86 96.9602 172.23L95.1502 171.02C93.9502 170.3 92.5102 172.11 93.3502 173.07C93.7102 173.43 94.4302 174.39 94.7902 174.87C94.5252 175.296 94.2848 175.737 94.0703 176.19C93.5903 176.07 92.7502 175.95 91.9102 175.83C90.5902 175.59 89.9103 177.83 91.0703 178.47C91.5503 178.71 92.5103 179.19 93.0703 179.47C92.9707 179.984 92.9304 180.507 92.9502 181.03C92.2394 181.229 91.5183 181.389 90.7902 181.51C89.4702 181.87 89.7102 184.16 91.0302 184.28C91.5102 184.28 92.7102 184.4 93.3102 184.4C93.4302 184.88 93.5502 185.24 93.6702 185.72C93.1902 185.96 92.5902 186.44 91.8702 186.8C90.6702 187.52 91.7503 189.68 93.0703 189.32C93.5503 189.2 94.6302 188.84 95.2302 188.72C95.5229 189.152 95.8579 189.554 96.2302 189.92C95.9802 190.28 95.5002 191 95.0202 191.72C94.3002 192.92 96.1002 194.36 97.0202 193.52C97.3802 193.16 98.3402 192.44 98.7002 192.08C99.1802 192.32 99.7003 192.68 100.14 192.92C100.02 193.4 99.9002 194.24 99.7802 195.08C99.5402 196.41 101.78 197.08 102.42 195.93C102.66 195.45 103.14 194.36 103.42 193.88C103.9 194 104.51 194 105.11 194.12C105.23 194.6 105.35 195.45 105.47 196.29C105.71 197.61 108.11 197.49 108.23 196.17C108.369 195.414 108.45 194.648 108.47 193.88C108.95 193.76 109.47 193.64 109.79 193.52C110.03 193.88 110.51 194.6 111.11 195.45C111.95 196.53 114 195.45 113.64 194.24C113.455 193.503 113.214 192.781 112.92 192.08C113.373 191.816 113.779 191.478 114.12 191.08C114.48 191.32 115.32 191.8 116.04 192.28C117.24 193 118.68 191.2 117.84 190.12C117.353 189.531 116.832 188.97 116.28 188.44C116.52 187.96 116.88 187.44 117.12 187C117.6 187.12 118.44 187.24 119.28 187.48C120.61 187.72 121.28 185.56 120.28 184.84C119.79 184.6 118.71 184 118.23 183.76C118.329 183.283 118.369 182.796 118.35 182.31C119.238 182.256 120.12 182.136 120.99 181.95ZM106.21 187.6C104.619 187.6 103.093 186.968 101.968 185.843C100.842 184.717 100.21 183.191 100.21 181.6C100.21 180.009 100.842 178.483 101.968 177.357C103.093 176.232 104.619 175.6 106.21 175.6C107.802 175.6 109.328 176.232 110.453 177.357C111.578 178.483 112.21 180.009 112.21 181.6C112.21 183.191 111.578 184.717 110.453 185.843C109.328 186.968 107.802 187.6 106.21 187.6Z" fill="#9953C0"></path><path d="M296.32 187.62C298.26 187.27 297.9 183.79 295.96 183.62C294.85 183.465 293.73 183.405 292.61 183.44C292.458 182.664 292.223 181.906 291.91 181.18C292.822 180.586 293.704 179.945 294.55 179.26C296.14 178.04 294.55 175.08 292.61 175.61C291.537 175.889 290.479 176.222 289.44 176.61C288.91 175.92 288.38 175.39 287.85 174.7L289.61 172.08C290.67 170.34 288.2 168.25 286.61 169.3C286.08 169.82 284.67 170.87 283.97 171.39C283.342 171.022 282.694 170.688 282.03 170.39C282.2 169.7 282.38 168.48 282.56 167.26C282.91 165.34 279.56 164.26 278.68 166.04L277.26 168.83C276.56 168.65 275.68 168.65 274.8 168.48C274.62 167.78 274.44 166.56 274.09 165.34C273.56 163.43 270.21 163.78 270.03 165.69C270.03 166.39 269.86 167.95 269.86 168.83C269.071 168.977 268.3 169.208 267.56 169.52C266.952 168.611 266.294 167.736 265.59 166.9C264.36 165.33 261.36 166.9 261.89 168.82C262.06 169.51 262.77 171.08 262.95 171.95C262.24 172.47 261.71 172.95 261.01 173.52L258.36 171.78C256.6 170.73 254.48 173.34 255.71 174.78C256.46 175.614 257.168 176.485 257.83 177.39C257.445 178.008 257.091 178.646 256.77 179.3C256.07 179.13 254.83 178.96 253.6 178.78C251.66 178.43 250.6 181.78 252.36 182.61C253.07 182.96 254.48 183.61 255.36 184.01C255.21 184.754 255.15 185.512 255.18 186.27C254.48 186.44 253.24 186.79 252.01 186.97C250.07 187.49 250.42 190.8 252.36 190.97C253.07 190.97 254.83 191.15 255.71 191.15C255.89 191.84 256.07 192.36 256.24 193.06C255.54 193.41 254.66 194.11 253.6 194.63C251.83 195.63 253.42 198.81 255.36 198.29C256.07 198.11 257.65 197.59 258.54 197.41C258.954 198.036 259.426 198.622 259.95 199.16C259.59 199.68 258.89 200.72 258.18 201.77C257.13 203.51 259.77 205.6 261.18 204.38C261.71 203.86 263.12 202.81 263.65 202.29C264.36 202.64 265.06 203.16 265.77 203.51C265.59 204.21 265.42 205.42 265.24 206.64C264.89 208.56 268.24 209.64 269.12 207.86C269.47 207.17 270.18 205.6 270.53 204.86C271.24 205.04 272.12 205.04 273 205.21C273.18 205.91 273.35 207.13 273.53 208.35C273.88 210.26 277.41 210.09 277.59 208.17C277.791 207.077 277.908 205.971 277.94 204.86C278.65 204.69 279.35 204.51 279.88 204.34C280.23 204.86 280.94 205.91 281.82 207.13C283.06 208.69 286.05 207.13 285.53 205.38C285.252 204.313 284.898 203.267 284.47 202.25C285.127 201.883 285.721 201.414 286.23 200.86C286.76 201.21 288 201.86 289.05 202.6C290.82 203.6 292.93 201.03 291.7 199.46C290.982 198.608 290.218 197.797 289.41 197.03C289.76 196.33 290.29 195.63 290.64 194.94C291.35 195.11 292.58 195.28 293.82 195.63C295.76 195.98 296.82 192.85 295.23 191.8C294.52 191.45 292.93 190.58 292.23 190.23C292.38 189.544 292.44 188.842 292.41 188.14C293.725 188.068 295.032 187.894 296.32 187.62ZM274.59 195.81C272.267 195.818 270.036 194.906 268.383 193.274C266.731 191.642 265.791 189.423 265.77 187.1C265.77 184.761 266.699 182.517 268.353 180.863C270.007 179.209 272.251 178.28 274.59 178.28C276.929 178.28 279.173 179.209 280.827 180.863C282.481 182.517 283.41 184.761 283.41 187.1C283.389 189.423 282.449 191.642 280.797 193.274C279.144 194.906 276.913 195.818 274.59 195.81Z" fill="#EFDFFA"></path><path d="M450.59 179.79C451.91 179.43 451.43 177.03 450.11 177.03H447.79C447.642 176.53 447.441 176.047 447.19 175.59C447.55 175.23 448.28 174.75 448.88 174.15C449.96 173.31 448.64 171.26 447.43 171.74C446.95 171.98 445.87 172.47 445.43 172.74C445.093 172.279 444.688 171.871 444.23 171.53C444.549 170.868 444.91 170.227 445.31 169.61C445.91 168.41 444.11 167.09 443.03 167.93L441.47 169.49C441.054 169.241 440.611 169.04 440.15 168.89C440.19 168.166 440.27 167.445 440.39 166.73C440.51 165.41 438.22 164.93 437.62 166.13C437.38 166.61 437.02 167.57 436.78 168.13C436.222 168.07 435.659 168.07 435.1 168.13C434.928 167.441 434.687 166.771 434.38 166.13C433.9 164.81 431.61 165.29 431.61 166.61C431.593 167.332 431.634 168.054 431.73 168.77C431.191 168.917 430.669 169.118 430.17 169.37C429.81 169.01 429.33 168.29 428.73 167.69C427.73 166.61 425.85 167.93 426.45 169.25C426.69 169.73 427.17 170.81 427.45 171.25C426.99 171.589 426.585 171.997 426.25 172.46C425.588 172.137 424.947 171.773 424.33 171.37C423.12 170.77 421.8 172.7 422.64 173.66C423.173 174.212 423.737 174.733 424.33 175.22C424.09 175.7 423.97 176.06 423.72 176.54C422.996 176.5 422.275 176.42 421.56 176.3C420.24 176.18 419.76 178.46 420.96 179.06C421.44 179.3 422.52 179.66 422.96 179.9V181.46C422.48 181.58 421.64 181.94 420.8 182.18C419.48 182.66 419.96 184.95 421.28 184.95C421.76 184.95 422.96 184.83 423.56 184.83C423.68 185.31 423.93 185.67 424.05 186.15C423.68 186.51 422.96 186.87 422.36 187.35C421.28 188.19 422.48 190.23 423.68 189.75C424.384 189.524 425.07 189.243 425.73 188.91L426.81 189.99C426.491 190.652 426.13 191.293 425.73 191.91C425.13 193.11 426.93 194.43 428.01 193.59L429.57 192.03C430.027 192.281 430.51 192.482 431.01 192.63C431.01 193.11 430.89 193.95 430.77 194.91C430.65 196.24 432.94 196.72 433.54 195.52C433.78 195.03 434.14 193.95 434.38 193.35C434.939 193.41 435.502 193.41 436.06 193.35C436.18 193.83 436.42 194.67 436.66 195.52C437.02 196.84 439.3 196.52 439.42 195.15V192.75C439.91 192.63 440.42 192.39 440.75 192.27C441.11 192.63 441.59 193.35 442.19 194.07C443.03 195.15 445.07 193.83 444.59 192.63C444.47 192.15 443.87 191.07 443.59 190.47C443.98 190.141 444.341 189.779 444.67 189.39C445.15 189.63 445.87 189.99 446.67 190.47C447.88 191.07 449.2 189.15 448.24 188.19C447.705 187.64 447.141 187.12 446.55 186.63C446.801 186.173 447.002 185.69 447.15 185.19C447.63 185.31 448.48 185.31 449.32 185.43C450.64 185.55 451.24 183.26 450.04 182.78C449.56 182.54 448.48 182.06 447.88 181.78V180.34C448.797 180.231 449.703 180.047 450.59 179.79ZM436.29 186.79C435.467 186.95 434.619 186.935 433.801 186.747C432.984 186.558 432.215 186.201 431.544 185.697C430.873 185.193 430.316 184.554 429.907 183.821C429.499 183.088 429.249 182.278 429.173 181.442C429.097 180.607 429.197 179.765 429.467 178.971C429.736 178.176 430.17 177.447 430.739 176.831C431.308 176.214 432 175.724 432.77 175.391C433.54 175.059 434.371 174.891 435.21 174.9C436.785 174.764 438.35 175.254 439.566 176.265C440.781 177.277 441.548 178.726 441.7 180.3C441.799 181.87 441.289 183.418 440.276 184.621C439.263 185.825 437.824 186.591 436.26 186.76L436.29 186.79Z" fill="#9953C0"></path><path d="M68.84 269.75H5.76001C5.00275 269.75 4.25293 269.601 3.55344 269.311C2.85395 269.02 2.21853 268.595 1.68353 268.059C1.14854 267.523 0.724467 266.887 0.435589 266.187C0.14671 265.487 -0.001306 264.737 8.68136e-06 263.98V219.07C-0.001306 218.313 0.14671 217.563 0.435589 216.863C0.724467 216.163 1.14854 215.527 1.68353 214.991C2.21853 214.455 2.85395 214.029 3.55344 213.739C4.25293 213.449 5.00275 213.3 5.76001 213.3H68.84C70.3668 213.305 71.8293 213.916 72.9071 214.997C73.9849 216.079 74.59 217.543 74.59 219.07V263.98C74.572 265.501 73.961 266.955 72.8871 268.033C71.8132 269.111 70.3612 269.727 68.84 269.75Z" fill="#D0AFE2"></path><path d="M74.59 223.51V219.07C74.59 217.54 73.9821 216.072 72.9 214.99C71.8179 213.908 70.3503 213.3 68.82 213.3H5.76001C5.00275 213.3 4.25293 213.449 3.55344 213.739C2.85395 214.029 2.21853 214.455 1.68353 214.991C1.14854 215.527 0.724467 216.163 0.435589 216.863C0.14671 217.563 -0.001306 218.313 8.68136e-06 219.07V223.51H74.59Z" fill="#9953C0"></path><path d="M36.3998 233.36H12.0098C11.8855 233.351 11.7688 233.297 11.6807 233.209C11.5926 233.121 11.539 233.004 11.5298 232.88V230.2C11.5367 230.074 11.5892 229.955 11.6775 229.865C11.7659 229.774 11.8839 229.72 12.0098 229.71H36.3998C36.5256 229.72 36.6437 229.774 36.732 229.865C36.8204 229.955 36.8729 230.074 36.8798 230.2V232.84C36.8802 232.971 36.8309 233.098 36.7419 233.194C36.6529 233.291 36.5307 233.35 36.3998 233.36Z" fill="#9953C0"></path><path d="M55.5899 241.77H21.5899C21.4648 241.758 21.3478 241.703 21.2599 241.613C21.172 241.523 21.1188 241.405 21.1099 241.28V238.64C21.1278 238.523 21.1852 238.416 21.2725 238.336C21.3597 238.256 21.4717 238.208 21.5899 238.2H55.5899C55.7159 238.207 55.8351 238.259 55.9252 238.348C56.0154 238.436 56.0703 238.554 56.0799 238.68V241.32C56.0618 241.44 56.0034 241.55 55.9143 241.631C55.8251 241.713 55.7106 241.762 55.5899 241.77Z" fill="#9953C0"></path><path d="M46.0099 250.2H21.5899C21.4656 250.191 21.3488 250.137 21.2607 250.049C21.1726 249.961 21.1191 249.844 21.1099 249.72V247.08C21.1191 246.956 21.1726 246.839 21.2607 246.751C21.3488 246.663 21.4656 246.609 21.5899 246.6H46.0099C46.1341 246.609 46.2509 246.663 46.339 246.751C46.4271 246.839 46.4806 246.956 46.4899 247.08V249.72C46.4806 249.844 46.4271 249.961 46.339 250.049C46.2509 250.137 46.1341 250.191 46.0099 250.2Z" fill="#9953C0"></path><path d="M55.59 258.58H31.23C31.1058 258.571 30.989 258.517 30.9009 258.429C30.8128 258.341 30.7592 258.224 30.75 258.1V255.46C30.7592 255.336 30.8128 255.219 30.9009 255.131C30.989 255.043 31.1058 254.989 31.23 254.98H55.59C55.7142 254.989 55.831 255.043 55.9191 255.131C56.0072 255.219 56.0608 255.336 56.07 255.46V258.1C56.0608 258.224 56.0072 258.341 55.9191 258.429C55.831 258.517 55.7142 258.571 55.59 258.58Z" fill="#9953C0"></path><path d="M90.1099 60.41V113.25C90.1045 117.533 91.7952 121.643 94.8123 124.683C97.8293 127.722 101.927 129.444 106.21 129.47L196.32 129.23C196.659 129.232 196.989 129.123 197.261 128.921C197.533 128.718 197.731 128.432 197.826 128.107C197.921 127.781 197.907 127.434 197.787 127.117C197.667 126.8 197.447 126.531 197.16 126.35L178.9 114.09V60.29C178.912 58.1724 178.504 56.0734 177.699 54.1148C176.894 52.1562 175.708 50.3768 174.21 48.88C171.193 45.8299 167.09 44.1003 162.8 44.07H106.21C104.08 44.0573 101.97 44.4771 100.007 45.3039C98.0437 46.1307 96.2689 47.3473 94.7899 48.88C91.7903 51.9688 90.1117 56.1044 90.1099 60.41Z" fill="#D0AFE2"></path><path d="M148.86 86.71H107.53C107.294 86.71 107.06 86.6634 106.841 86.573C106.623 86.4825 106.424 86.3499 106.257 86.1828C106.09 86.0156 105.957 85.8172 105.867 85.5988C105.777 85.3804 105.73 85.1464 105.73 84.91C105.73 84.6736 105.777 84.4395 105.867 84.2212C105.957 84.0028 106.09 83.8043 106.257 83.6372C106.424 83.47 106.623 83.3375 106.841 83.247C107.06 83.1565 107.294 83.11 107.53 83.11H148.86C149.337 83.11 149.795 83.2996 150.133 83.6372C150.47 83.9748 150.66 84.4326 150.66 84.91C150.66 85.3874 150.47 85.8452 150.133 86.1828C149.795 86.5203 149.337 86.71 148.86 86.71Z" fill="#9953C0"></path><path d="M148.86 97.52H107.53C107.053 97.52 106.595 97.3303 106.257 96.9928C105.92 96.6552 105.73 96.1974 105.73 95.72C105.73 95.2426 105.92 94.7848 106.257 94.4472C106.595 94.1096 107.053 93.92 107.53 93.92H148.86C149.337 93.92 149.795 94.1096 150.133 94.4472C150.47 94.7848 150.66 95.2426 150.66 95.72C150.66 96.1974 150.47 96.6552 150.133 96.9928C149.795 97.3303 149.337 97.52 148.86 97.52Z" fill="#9953C0"></path><path d="M148.86 108.33H107.53C107.053 108.33 106.595 108.14 106.257 107.803C105.92 107.465 105.73 107.007 105.73 106.53C105.73 106.053 105.92 105.595 106.257 105.257C106.595 104.92 107.053 104.73 107.53 104.73H148.86C149.337 104.73 149.795 104.92 150.133 105.257C150.47 105.595 150.66 106.053 150.66 106.53C150.66 107.007 150.47 107.465 150.133 107.803C149.795 108.14 149.337 108.33 148.86 108.33Z" fill="#9953C0"></path><path d="M169.77 85.99H156.59C156.466 85.9807 156.349 85.9272 156.261 85.8391C156.173 85.751 156.119 85.6342 156.11 85.51V82.87C156.119 82.7457 156.173 82.6289 156.261 82.5409C156.349 82.4528 156.466 82.3992 156.59 82.39H169.81C169.934 82.3992 170.051 82.4528 170.139 82.5409C170.227 82.6289 170.281 82.7457 170.29 82.87V85.51C170.28 85.6408 170.221 85.7631 170.124 85.8521C170.028 85.9411 169.901 85.9904 169.77 85.99Z" fill="#9953C0"></path><path d="M149.94 63.53V76.74C149.931 76.8642 149.877 76.981 149.789 77.0691C149.701 77.1572 149.584 77.2107 149.46 77.22H146.82C146.696 77.2107 146.579 77.1572 146.491 77.0691C146.403 76.981 146.349 76.8642 146.34 76.74V63.53C146.349 63.4057 146.403 63.2889 146.491 63.2009C146.579 63.1128 146.696 63.0592 146.82 63.05H149.46C149.524 63.0438 149.59 63.052 149.651 63.0739C149.712 63.0958 149.767 63.131 149.813 63.1768C149.859 63.2227 149.894 63.2782 149.916 63.3392C149.938 63.4003 149.946 63.4654 149.94 63.53Z" fill="#9953C0"></path><path d="M164.48 70.62L155.11 79.99C155.068 80.0459 155.014 80.0912 154.951 80.1225C154.889 80.1537 154.82 80.17 154.75 80.17C154.68 80.17 154.611 80.1537 154.549 80.1225C154.486 80.0912 154.432 80.0459 154.39 79.99L152.47 78.06C152.412 78.0194 152.365 77.9655 152.333 77.9028C152.3 77.8402 152.283 77.7706 152.283 77.7C152.283 77.6294 152.3 77.5598 152.333 77.4971C152.365 77.4345 152.412 77.3806 152.47 77.34L161.84 67.98C161.882 67.9241 161.936 67.8787 161.999 67.8475C162.061 67.8163 162.13 67.8 162.2 67.8C162.27 67.8 162.339 67.8163 162.401 67.8475C162.464 67.8787 162.518 67.9241 162.56 67.98L164.48 69.9C164.536 69.9419 164.581 69.9963 164.613 70.0587C164.644 70.1212 164.66 70.1901 164.66 70.26C164.66 70.3298 164.644 70.3988 164.613 70.4612C164.581 70.5237 164.536 70.5781 164.48 70.62Z" fill="#9953C0"></path><path d="M458.37 296.41V244.2C458.393 242.068 457.981 239.954 457.159 237.987C456.337 236.02 455.123 234.241 453.59 232.76C452.097 231.248 450.321 230.045 448.363 229.22C446.406 228.394 444.304 227.963 442.18 227.95H365.28C364.942 227.952 364.613 228.063 364.343 228.267C364.073 228.471 363.877 228.757 363.782 229.082C363.688 229.407 363.701 229.753 363.819 230.07C363.938 230.387 364.155 230.657 364.44 230.84L382.7 243.33V291.13C382.687 293.258 383.107 295.367 383.934 297.329C384.761 299.29 385.977 301.063 387.51 302.54C390.528 305.587 394.631 307.313 398.92 307.34H442.3C444.428 307.354 446.536 306.936 448.497 306.111C450.459 305.286 452.232 304.071 453.71 302.54C456.697 299.481 458.416 295.404 458.52 291.13" fill="#D0AFE2"></path><path d="M425.45 243.57H405.02C404.26 243.58 403.533 243.887 402.995 244.425C402.457 244.963 402.15 245.689 402.14 246.45V287.65C402.15 288.411 402.457 289.137 402.995 289.675C403.533 290.213 404.26 290.52 405.02 290.53H436.38C437.141 290.52 437.867 290.213 438.405 289.675C438.943 289.137 439.25 288.411 439.26 287.65L439.38 257.5C439.362 256.963 439.149 256.451 438.78 256.06L426.89 244.2C426.705 244.003 426.482 243.846 426.235 243.738C425.987 243.629 425.72 243.572 425.45 243.57Z" fill="#9953C0"></path><path d="M438.78 256.06L426.89 244.2C426.638 243.996 426.354 243.833 426.05 243.72V256.09C426.05 256.355 426.155 256.61 426.343 256.797C426.53 256.985 426.785 257.09 427.05 257.09H439.42C439.257 256.718 439.042 256.371 438.78 256.06Z" fill="#EFDFFA"></path><path d="M431.46 272.13L428.8 271.84C428.696 271.836 428.597 271.794 428.522 271.722C428.446 271.65 428.4 271.554 428.39 271.45C428.211 270.837 427.97 270.244 427.67 269.68C427.612 269.588 427.59 269.478 427.609 269.371C427.627 269.264 427.685 269.167 427.77 269.1L429.41 267.1C429.62 266.91 429.51 266.61 429.41 266.42L427.98 265.05C427.884 264.955 427.755 264.901 427.62 264.901C427.485 264.901 427.356 264.955 427.26 265.05L425.21 266.61C425.01 266.71 424.8 266.81 424.6 266.61C424.047 266.294 423.464 266.033 422.86 265.83C422.679 265.756 422.533 265.617 422.45 265.44L422.14 262.89C422.123 262.771 422.06 262.664 421.964 262.591C421.869 262.518 421.749 262.486 421.63 262.5H419.69C419.57 262.485 419.449 262.518 419.352 262.591C419.255 262.663 419.19 262.771 419.17 262.89L418.87 265.34C418.86 265.444 418.814 265.54 418.738 265.612C418.663 265.684 418.564 265.726 418.46 265.73C417.774 265.889 417.117 266.152 416.51 266.51C416.416 266.559 416.311 266.585 416.205 266.585C416.099 266.585 415.994 266.559 415.9 266.51L413.95 265.05C413.75 264.85 413.44 264.95 413.24 265.05L411.91 266.42C411.861 266.462 411.822 266.514 411.795 266.573C411.769 266.632 411.755 266.696 411.755 266.76C411.755 266.824 411.769 266.888 411.795 266.947C411.822 267.006 411.861 267.058 411.91 267.1L413.54 269.1C413.594 269.187 413.623 269.288 413.623 269.39C413.623 269.492 413.594 269.593 413.54 269.68C413.203 270.257 412.963 270.885 412.83 271.54C412.82 271.644 412.774 271.74 412.698 271.812C412.623 271.884 412.524 271.926 412.42 271.93L409.76 272.23C409.701 272.235 409.643 272.252 409.591 272.279C409.538 272.307 409.491 272.344 409.453 272.39C409.415 272.435 409.386 272.488 409.369 272.545C409.351 272.601 409.345 272.661 409.35 272.72V274.58C409.345 274.639 409.351 274.698 409.369 274.754C409.387 274.81 409.415 274.862 409.454 274.907C409.492 274.951 409.539 274.988 409.591 275.014C409.644 275.041 409.701 275.056 409.76 275.06L412.52 275.36C412.73 275.36 412.93 275.46 412.93 275.65C413.13 276.14 413.34 276.65 413.54 277.02C413.601 277.113 413.624 277.225 413.606 277.335C413.587 277.444 413.528 277.542 413.44 277.61L411.8 279.56C411.6 279.76 411.7 280.05 411.8 280.25L413.24 281.62C413.335 281.712 413.463 281.764 413.595 281.764C413.728 281.764 413.855 281.712 413.95 281.62L416 280.05C416.097 280.006 416.203 279.983 416.31 279.983C416.417 279.983 416.523 280.006 416.62 280.05C417.174 280.341 417.757 280.573 418.36 280.74C418.56 280.84 418.76 280.93 418.76 281.13L419.07 283.77C419.087 283.889 419.15 283.996 419.246 284.069C419.341 284.142 419.461 284.174 419.58 284.16H421.53C421.84 284.16 422.04 283.97 422.04 283.77L422.35 281.23C422.358 281.126 422.404 281.028 422.48 280.956C422.555 280.883 422.655 280.842 422.76 280.84C423.412 280.677 424.033 280.41 424.6 280.05C424.699 279.998 424.812 279.979 424.922 279.997C425.032 280.015 425.133 280.069 425.21 280.15L427.26 281.72C427.47 281.91 427.77 281.81 427.98 281.72L429.41 280.35C429.459 280.307 429.498 280.254 429.525 280.194C429.552 280.135 429.566 280.07 429.566 280.005C429.566 279.94 429.552 279.875 429.525 279.816C429.498 279.756 429.459 279.703 429.41 279.66L427.77 277.71C427.721 277.619 427.695 277.518 427.695 277.415C427.695 277.312 427.721 277.211 427.77 277.12C427.98 276.73 428.18 276.24 428.39 275.85C428.49 275.65 428.59 275.55 428.8 275.55L431.66 275.26C431.792 275.256 431.917 275.204 432.013 275.113C432.108 275.023 432.168 274.901 432.18 274.77V272.91C431.87 272.33 431.77 272.13 431.46 272.13ZM420.59 277.2C419.823 277.167 419.082 276.909 418.46 276.458C417.839 276.008 417.363 275.385 417.092 274.666C416.821 273.947 416.767 273.165 416.937 272.416C417.107 271.667 417.493 270.985 418.048 270.454C418.602 269.922 419.3 269.565 420.056 269.427C420.811 269.29 421.59 269.376 422.297 269.677C423.003 269.979 423.606 270.48 424.029 271.121C424.453 271.761 424.679 272.512 424.68 273.28C424.67 273.806 424.556 274.325 424.344 274.807C424.133 275.289 423.829 275.725 423.449 276.089C423.069 276.453 422.621 276.739 422.13 276.929C421.64 277.12 421.116 277.212 420.59 277.2Z" fill="#D0AFE2"></path><path d="M339.66 40.11V107.11C339.658 107.449 339.767 107.779 339.97 108.051C340.172 108.323 340.458 108.521 340.783 108.616C341.109 108.711 341.456 108.697 341.773 108.577C342.09 108.457 342.36 108.237 342.54 107.95L353.96 90.2H432.42C433.816 90.1869 435.152 89.6265 436.139 88.6391C437.127 87.6517 437.687 86.3163 437.7 84.92V40.11H339.66Z" fill="#D0AFE2"></path><path d="M361.53 39.87H357.92V90.2H361.53V39.87Z" fill="#9953C0"></path><path d="M396.85 76.86L408.03 49C408.15 48.64 407.9 48.4 407.54 48.4H404.66C404.42 48.4 404.3 48.52 404.18 48.76L393.01 76.62C392.89 76.98 393.13 77.22 393.49 77.22H396.37C396.59 77.2 396.73 77.1 396.85 76.86Z" fill="#9953C0"></path><path d="M381.83 62.81L391.2 58.01C391.273 57.9531 391.333 57.8804 391.375 57.7973C391.416 57.7142 391.438 57.6229 391.44 57.53V54.4C391.444 54.3148 391.423 54.2303 391.38 54.1567C391.337 54.0831 391.274 54.0236 391.197 53.9854C391.121 53.9473 391.035 53.9322 390.951 53.9418C390.866 53.9515 390.786 53.9856 390.72 54.04L375.72 61.97C375.647 62.0269 375.587 62.0996 375.545 62.1827C375.504 62.2658 375.481 62.3571 375.48 62.45V64.25C375.481 64.3429 375.504 64.4342 375.545 64.5173C375.587 64.6004 375.647 64.6731 375.72 64.73L390.98 71.82C391.059 71.8504 391.144 71.8614 391.229 71.8521C391.313 71.8427 391.394 71.8133 391.464 71.7663C391.535 71.7193 391.593 71.656 391.634 71.5818C391.675 71.5077 391.698 71.4247 391.7 71.34V68.2C391.698 68.1071 391.676 68.0158 391.635 67.9327C391.593 67.8496 391.533 67.7769 391.46 67.72L381.97 63.63C381.47 63.41 381.47 62.93 381.83 62.81Z" fill="#9953C0"></path><path d="M425.81 61.37L410.59 53.68C410.511 53.6496 410.426 53.6386 410.341 53.6479C410.257 53.6573 410.176 53.6867 410.106 53.7337C410.035 53.7807 409.977 53.844 409.936 53.9181C409.895 53.9923 409.872 54.0753 409.87 54.16V57.29C409.872 57.3829 409.894 57.4742 409.935 57.5573C409.977 57.6404 410.037 57.7131 410.11 57.77L419.59 62.33C419.671 62.3662 419.74 62.4252 419.788 62.4997C419.837 62.5742 419.862 62.6612 419.862 62.75C419.862 62.8388 419.837 62.9258 419.788 63.0003C419.74 63.0748 419.671 63.1338 419.59 63.17L410.19 67.5C410.117 67.5569 410.057 67.6296 410.016 67.7127C409.974 67.7958 409.952 67.8871 409.95 67.98V71.1C409.952 71.1847 409.975 71.2677 410.016 71.3418C410.057 71.416 410.115 71.4793 410.186 71.5263C410.256 71.5733 410.337 71.6027 410.421 71.6121C410.506 71.6214 410.591 71.6104 410.67 71.58L425.81 64.13C425.884 64.0731 425.943 64.0004 425.985 63.9173C426.026 63.8342 426.049 63.7429 426.05 63.65V61.85C426.05 61.61 426.05 61.49 425.81 61.37Z" fill="#9953C0"></path><path d="M437.7 40.35V25.46C437.708 24.8112 437.586 24.1673 437.342 23.5662C437.098 22.9651 436.736 22.4189 436.277 21.9596C435.819 21.5003 435.274 21.1373 434.673 20.8918C434.072 20.6463 433.429 20.5233 432.78 20.53H344.59C343.941 20.5233 343.297 20.6462 342.695 20.8916C342.094 21.137 341.548 21.4999 341.089 21.959C340.63 22.4182 340.267 22.9643 340.022 23.5655C339.776 24.1666 339.653 24.8107 339.66 25.46V40.35H437.7Z" fill="#9953C0"></path><path d="M401.18 33.51H408.99C409.114 33.5008 409.231 33.4472 409.319 33.3591C409.407 33.271 409.461 33.1542 409.47 33.03V27.5C409.461 27.3757 409.407 27.259 409.319 27.1709C409.231 27.0828 409.114 27.0292 408.99 27.02H401.18C401.056 27.0292 400.939 27.0828 400.851 27.1709C400.763 27.259 400.709 27.3757 400.7 27.5V33.03C400.694 33.0946 400.702 33.1597 400.724 33.2208C400.746 33.2818 400.781 33.3373 400.827 33.3831C400.873 33.429 400.928 33.4642 400.989 33.4861C401.05 33.508 401.115 33.5162 401.18 33.51Z" fill="#D0AFE2"></path><path d="M418.59 33.51H426.4C426.524 33.5008 426.641 33.4472 426.729 33.3591C426.817 33.271 426.871 33.1542 426.88 33.03V27.5C426.871 27.3757 426.817 27.259 426.729 27.1709C426.641 27.0828 426.524 27.0292 426.4 27.02H418.59C418.466 27.0292 418.349 27.0828 418.261 27.1709C418.173 27.259 418.119 27.3757 418.11 27.5V33.03C418.104 33.0946 418.112 33.1597 418.134 33.2208C418.156 33.2818 418.191 33.3373 418.237 33.3831C418.283 33.429 418.338 33.4642 418.399 33.4861C418.46 33.508 418.525 33.5162 418.59 33.51Z" fill="#D0AFE2"></path></g><defs><clipPath id="clip0_9037_90736"><rect width="530.94" height="360.44" fill="white"></rect></clipPath></defs></svg> 